<svg version="1" xmlns="http://www.w3.org/2000/svg" width="682.667" height="682.667" viewBox="0 0 512.000000 512.000000"><path d="M64.3 136.1c-2.4.9-3.8 4.2-2.7 6.1.7 1.1 72.1 98.2 79.2 107.5l2.4 3.2-40.4 54.8c-35 47.5-40.3 55.3-40.3 58.3s.3 3.5 2.6 3.8c2.5.3 5.8-3.9 41.9-53 21.6-29.3 39.8-53.9 40.5-54.6 1-1.1 8.8 8.9 41.5 53.2 29.3 39.8 40.7 54.6 42.2 54.6 3.3 0 5.8-1.9 5.8-4.6 0-1.7-12.4-19.3-39.8-56.7-21.9-29.8-40.2-54.8-40.6-55.5-.5-.8 14.1-21.5 39.8-56.6 22.3-30.5 40.6-56.3 40.6-57.3 0-1.1-1.1-2.5-2.5-3.1-2.2-1-2.9-.8-5.4 1.6-1.7 1.5-19.9 25.9-40.7 54.2-20.7 28.3-38 51.5-38.5 51.5s-18.5-24-40.1-53.4-40.2-53.7-41.3-54.1c-1.1-.4-3-.4-4.2.1zM295 137.3l-2.5 1.3-.3 114.1-.2 114.2 2.1 1.1c1.4.8 17.2 1 54.2.7 56.9-.4 58.7-.6 74.3-6.6 14.2-5.5 29.4-18.2 38.8-32.5 8.4-12.6 15.3-32.1 18-50.9 2.1-13.6 2.1-39.2.1-51.7-6.5-39.7-24.4-67.4-53.2-81.8-15.5-7.9-27.7-9.2-86.8-9.2-31.9 0-42.6.3-44.5 1.3zm113 12.6c21.6 6.5 38.6 21.3 49 42.6 16.8 34.2 16.8 87.1.1 120.9-9 18.3-19.5 29.3-34.6 36.6-16.6 8-27.1 9.2-79.5 8.8l-39.5-.3-.3-105.8-.2-105.8 48.7.3c47.4.4 49 .5 56.3 2.7z"/></svg>