<?xml version="1.0" encoding="UTF-8" standalone="no"?>
<svg
   xmlns:dc="http://purl.org/dc/elements/1.1/"
   xmlns:cc="http://creativecommons.org/ns#"
   xmlns:rdf="http://www.w3.org/1999/02/22-rdf-syntax-ns#"
   xmlns:svg="http://www.w3.org/2000/svg"
   xmlns="http://www.w3.org/2000/svg"
   xmlns:sodipodi="http://sodipodi.sourceforge.net/DTD/sodipodi-0.dtd"
   xmlns:inkscape="http://www.inkscape.org/namespaces/inkscape"
   viewBox="0 0 64 64"
   enable-background="new 0 0 64 64"
   version="1.1"
   id="svg8"
   sodipodi:docname="explosion.svg"
   inkscape:version="0.92.4 (5da689c313, 2019-01-14)">
  <metadata
     id="metadata14">
    <rdf:RDF>
      <cc:Work
         rdf:about="">
        <dc:format>image/svg+xml</dc:format>
        <dc:type
           rdf:resource="http://purl.org/dc/dcmitype/StillImage" />
      </cc:Work>
    </rdf:RDF>
  </metadata>
  <defs
     id="defs12" />
  <sodipodi:namedview
     pagecolor="#ffffff"
     bordercolor="#666666"
     borderopacity="1"
     objecttolerance="10"
     gridtolerance="10"
     guidetolerance="10"
     inkscape:pageopacity="0"
     inkscape:pageshadow="2"
     inkscape:window-width="1645"
     inkscape:window-height="596"
     id="namedview10"
     showgrid="false"
     inkscape:zoom="3.6875"
     inkscape:cx="-17.084746"
     inkscape:cy="32"
     inkscape:window-x="0"
     inkscape:window-y="0"
     inkscape:window-maximized="0"
     inkscape:current-layer="svg8" />
  <path
     d="m 38.782373,24.190356 -0.04,-11.159 -5.674,7.29 -4.913,-10.9890001 -1.75,15.3470001 -12.715,-1.758 6.785,6.553 -15.0400001,2.839 14.4420001,3.618 -15.0400001,16.851 20.8810001,-11.458 0.03,11.161 5.691,-7.294 4.912,10.99 1.749,-15.347 12.708,1.759 -6.783,-6.552 15.04,-2.84 -14.44,-3.612 15.04,-16.853 z"
     id="path2"
     inkscape:connector-curvature="0"
     style="fill:#fbb041" />
  <path
     d="m 35.509373,28.486356 -0.018,-5.555 -2.829,3.63 -2.449,-5.476 -0.88,7.645 -6.329,-0.874 3.379,3.265 -7.49,1.414 7.196,1.804 -7.497,8.396 10.406,-5.714 0.018,5.564 2.826,-3.634 2.45,5.482 0.882,-7.651 6.333,0.876 -3.379,-3.263 7.494,-1.414 -7.204,-1.802 7.494,-8.399 z"
     id="path4"
     inkscape:connector-curvature="0"
     style="fill:#ffffff" />
  <path
     d="m 64.242373,9.1213559 -17.804,19.9500001 17.04,4.259 -17.415,3.289 7.569,7.314 -14.587,-2.02 -2.075,18.16 -5.776,-12.915 -6.481,8.306 -0.034,-12.466 -24.41300012,13.396 17.80400012,-19.95 -17.0300001,-4.265 17.4120001,-3.292 -7.572,-7.31 14.595,2.02 2.074,-18.1700001 5.77,12.9230001 6.479,-8.311 0.039,12.471 24.408,-13.3930001 m -22.24,26.3440001 12.661,-2.391 -11.852,-2.968 12.278,-13.754 -17.35,9.517 -0.03,-9.852 -4.891,6.273 -4.053,-9.06 -1.43,12.526 -10.838,-1.493 6,5.789 -12.6600001,2.391 11.8560001,2.964 -12.2840001,13.76 17.3540001,-9.521 0.024,9.856 4.895,-6.273 4.049,9.06 1.439,-12.532 10.831,1.501 -6,-5.792"
     id="path6"
     inkscape:connector-curvature="0"
     style="fill:#df394c" />
  <text
     xml:space="preserve"
     style="font-style:normal;font-weight:normal;font-size:40px;line-height:1.25;font-family:sans-serif;letter-spacing:0px;word-spacing:0px;fill:#000000;fill-opacity:1;stroke:none"
     x="14.372881"
     y="39.864407"
     id="text3723"><tspan
       sodipodi:role="line"
       id="tspan3721"
       x="14.372881"
       y="75.255035"></tspan></text>
  <text
     xml:space="preserve"
     style="font-style:normal;font-variant:normal;font-weight:bold;font-stretch:normal;font-size:33.33333206px;line-height:1.25;font-family:Quicksand;-inkscape-font-specification:'Quicksand, Bold';font-variant-ligatures:normal;font-variant-caps:normal;font-variant-numeric:normal;font-feature-settings:normal;text-align:start;letter-spacing:0px;word-spacing:0px;writing-mode:lr-tb;text-anchor:start;fill:#000000;fill-opacity:1;stroke:none"
     x="10.456779"
     y="44.091286"
     id="text3731"><tspan
       sodipodi:role="line"
       id="tspan3729"
       x="10.456779"
       y="44.091286">XD</tspan></text>
</svg>
