<?xml version="1.0" encoding="UTF-8" standalone="no"?>
<svg
   xmlns:dc="http://purl.org/dc/elements/1.1/"
   xmlns:cc="http://creativecommons.org/ns#"
   xmlns:rdf="http://www.w3.org/1999/02/22-rdf-syntax-ns#"
   xmlns:svg="http://www.w3.org/2000/svg"
   xmlns="http://www.w3.org/2000/svg"
   xmlns:xlink="http://www.w3.org/1999/xlink"
   xmlns:sodipodi="http://sodipodi.sourceforge.net/DTD/sodipodi-0.dtd"
   xmlns:inkscape="http://www.inkscape.org/namespaces/inkscape"
   viewBox="0 0 512 512"
   enable-background="new 0 0 64 64"
   version="1.1"
   id="svg8"
   sodipodi:docname="explosion.svg"
   inkscape:version="0.92.4 (5da689c313, 2019-01-14)"
   width="512"
   height="512">
  <metadata
     id="metadata14">
    <rdf:RDF>
      <cc:Work
         rdf:about="">
        <dc:format>image/svg+xml</dc:format>
        <dc:type
           rdf:resource="http://purl.org/dc/dcmitype/StillImage" />
        <dc:title />
      </cc:Work>
    </rdf:RDF>
  </metadata>
  <defs
     id="defs12">
    <linearGradient
       inkscape:collect="always"
       id="linearGradient4579">
      <stop
         style="stop-color:#000000;stop-opacity:1;"
         offset="0"
         id="stop4575" />
      <stop
         style="stop-color:#000000;stop-opacity:0;"
         offset="1"
         id="stop4577" />
    </linearGradient>
    <linearGradient
       inkscape:collect="always"
       xlink:href="#linearGradient4579"
       id="linearGradient4585"
       x1="18.288416"
       y1="262.98444"
       x2="489.85748"
       y2="262.98444"
       gradientUnits="userSpaceOnUse" />
  </defs>
  <sodipodi:namedview
     pagecolor="#ffffff"
     bordercolor="#666666"
     borderopacity="1"
     objecttolerance="10"
     gridtolerance="10"
     guidetolerance="10"
     inkscape:pageopacity="0"
     inkscape:pageshadow="2"
     inkscape:window-width="1749"
     inkscape:window-height="679"
     id="namedview10"
     showgrid="false"
     inkscape:zoom="0.4609375"
     inkscape:cx="534.03834"
     inkscape:cy="450.11305"
     inkscape:window-x="111"
     inkscape:window-y="11"
     inkscape:window-maximized="0"
     inkscape:current-layer="svg8" />
  <circle
     style="fill:#69c8a4;fill-opacity:1;stroke:none;stroke-width:13.9001236;stroke-miterlimit:4;stroke-dasharray:none;stroke-opacity:1"
     id="path6150"
     cx="256"
     cy="256"
     r="256" />
  <path
     d="m 504.62901,86.82281 -137.34125,153.89564 131.4477,32.85421 -134.34048,25.37157 58.38778,56.42069 -112.52511,-15.58241 -16.00668,140.08746 -44.55646,-99.62718 -49.99487,64.07304 -0.26228,-96.16356 L 11.113827,451.48992 148.45509,297.59427 17.084516,264.69377 151.40186,239.29906 92.99094,182.90923 205.57776,198.49165 221.57674,58.327041 266.0869,158.01593 316.06635,93.90432 316.3672,190.10645 504.65215,86.79195 m -171.56086,203.21939 97.66781,-18.44433 -91.42712,-22.89536 94.71332,-106.09928 -133.83907,73.41478 -0.23143,-75.99899 -37.7295,48.39034 -31.26512,-69.88945 -11.03111,96.62641 -83.60507,-11.5171 46.28441,44.65674 -97.6601,18.44433 91.45799,22.8645 -94.75961,106.14556 133.86993,-73.44563 0.18514,76.02985 37.76036,-48.39035 31.23426,69.88945 11.10054,-96.67269 83.55107,11.57881 -46.28441,-44.67987"
     id="path6-9"
     inkscape:connector-curvature="0"
     style="fill:#df394c;stroke:none;stroke-width:10.40000153;stroke-miterlimit:4;stroke-dasharray:none;stroke-opacity:1" />
  <path
     d="m 308.22886,203.06609 -0.30857,-86.08128 -43.76962,56.23555 -37.89921,-84.76989 -13.49962,118.3878 -98.08436,-13.56133 52.33994,50.55028 L 50.987846,265.72746 162.39441,293.63695 46.374833,423.6267 207.45228,335.23892 l 0.23142,86.09671 43.90076,-56.26641 37.8915,84.7776 13.4919,-118.38779 98.03037,13.56904 L 348.67371,294.4855 464.69329,272.57755 353.30215,244.71434 469.32173,114.70916 Z"
     id="path2"
     inkscape:connector-curvature="0"
     style="fill:#fbb041;stroke-width:7.71406746" />
  <path
     d="m 282.98071,236.20572 -0.13885,-42.85164 -21.8231,28.00206 -18.89175,-42.24223 -6.78838,58.97404 -48.82233,-6.74209 26.06583,25.18643 -57.77836,10.90769 55.51043,13.91618 -57.83237,64.76731 80.27259,-44.07818 0.13885,42.92107 21.79996,-28.03292 18.89946,42.28852 6.80381,-59.02033 48.85319,6.75752 -26.06583,-25.171 57.80922,-10.9077 -55.57215,-13.90074 57.80923,-64.79046 z"
     id="path4"
     inkscape:connector-curvature="0"
     style="fill:#ffff00;stroke-width:7.71406746" />
  <path
     d="m 504.62901,86.82281 -137.34125,153.89564 131.4477,32.85421 -134.34048,25.37157 58.38778,56.42069 -112.52511,-15.58241 -16.00668,140.08746 -44.55646,-99.62718 -49.99487,64.07304 -0.26228,-96.16356 L 11.11383,451.48992 148.45509,297.59427 17.084519,264.69377 151.40186,239.29906 92.990944,182.90923 205.57776,198.49165 221.57674,58.327041 266.0869,158.01593 316.06635,93.90432 316.3672,190.10645 504.65215,86.79195 m -171.56086,203.21939 97.66781,-18.44433 -91.42712,-22.89536 94.71332,-106.09928 -133.83907,73.41478 -0.23143,-75.99899 -37.7295,48.39034 -31.26512,-69.88945 -11.03111,96.62641 -83.60507,-11.5171 46.28441,44.65674 -97.660097,18.44433 91.457987,22.8645 -94.759608,106.14556 133.869928,-73.44563 0.18514,76.02985 37.76036,-48.39035 31.23426,69.88945 11.10054,-96.67269 83.55107,11.57881 -46.28441,-44.67987"
     id="path6"
     inkscape:connector-curvature="0"
     style="fill:#df394c;stroke:none;stroke-opacity:1;stroke-width:10.40000153;stroke-miterlimit:4;stroke-dasharray:none" />
  <text
     xml:space="preserve"
     style="font-style:normal;font-weight:normal;font-size:40px;line-height:1.25;font-family:sans-serif;letter-spacing:0px;word-spacing:0px;fill:#000000;fill-opacity:1;stroke:none"
     x="14.372881"
     y="487.86441"
     id="text3723"><tspan
       sodipodi:role="line"
       id="tspan3721"
       x="14.372881"
       y="523.255" /></text>
  <text
     xml:space="preserve"
     style="font-style:normal;font-variant:normal;font-weight:normal;font-stretch:normal;font-size:346.66665649px;line-height:1.25;font-family:Quicksand;-inkscape-font-specification:'Quicksand, Normal';font-variant-ligatures:normal;font-variant-caps:normal;font-variant-numeric:normal;font-feature-settings:normal;text-align:start;letter-spacing:0px;word-spacing:0px;writing-mode:lr-tb;text-anchor:start;fill:#000000;fill-opacity:1;stroke:#ffffff;stroke-width:10;stroke-miterlimit:4;stroke-dasharray:none;stroke-opacity:1"
     x="44.163982"
     y="373.93903"
     id="text3731"><tspan
       sodipodi:role="line"
       id="tspan3729"
       x="44.163982"
       y="373.93903"
       style="font-style:normal;font-variant:normal;font-weight:normal;font-stretch:normal;font-size:346.66665649px;font-family:Quicksand;-inkscape-font-specification:'Quicksand, Normal';font-variant-ligatures:normal;font-variant-caps:normal;font-variant-numeric:normal;font-feature-settings:normal;text-align:start;writing-mode:lr-tb;text-anchor:start;stroke:#ffffff;stroke-width:10;stroke-miterlimit:4;stroke-dasharray:none;stroke-opacity:1">XD</tspan></text>
</svg>
